<svg xmlns="http://www.w3.org/2000/svg" viewBox="0 0 128 128" width="128" height="128">
  <defs>
    <linearGradient id="grad1" x1="0%" y1="0%" x2="100%" y2="100%">
      <stop offset="0%" style="stop-color:#667eea;stop-opacity:1" />
      <stop offset="100%" style="stop-color:#764ba2;stop-opacity:1" />
    </linearGradient>
    <linearGradient id="grad2" x1="0%" y1="0%" x2="100%" y2="100%">
      <stop offset="0%" style="stop-color:#ffffff;stop-opacity:1" />
      <stop offset="100%" style="stop-color:#f8f9fa;stop-opacity:1" />
    </linearGradient>
  </defs>
  
  <!-- Fondo circular -->
  <circle cx="64" cy="64" r="60" fill="url(#grad1)" stroke="none"/>
  
  <!-- Círculo interior -->
  <circle cx="64" cy="64" r="50" fill="none" stroke="url(#grad2)" stroke-width="2"/>
  
  <!-- Manecillas del reloj -->
  <g transform="translate(64,64)">
    <!-- Manecilla de horas -->
    <line x1="0" y1="0" x2="0" y2="-25" stroke="url(#grad2)" stroke-width="4" stroke-linecap="round"/>
    <!-- Manecilla de minutos -->
    <line x1="0" y1="0" x2="20" y2="-15" stroke="url(#grad2)" stroke-width="3" stroke-linecap="round"/>
    <!-- Centro -->
    <circle cx="0" cy="0" r="3" fill="url(#grad2)"/>
  </g>
  
  <!-- Marcadores de horas -->
  <g transform="translate(64,64)">
    <g transform="rotate(0)">
      <rect x="-1" y="-48" width="2" height="8" fill="url(#grad2)"/>
    </g>
    <g transform="rotate(90)">
      <rect x="-1" y="-48" width="2" height="8" fill="url(#grad2)"/>
    </g>
    <g transform="rotate(180)">
      <rect x="-1" y="-48" width="2" height="8" fill="url(#grad2)"/>
    </g>
    <g transform="rotate(270)">
      <rect x="-1" y="-48" width="2" height="8" fill="url(#grad2)"/>
    </g>
  </g>
  
  <!-- Icono de gráfico en la esquina -->
  <g transform="translate(88,88)">
    <rect x="0" y="8" width="4" height="12" fill="url(#grad2)" rx="1"/>
    <rect x="6" y="4" width="4" height="16" fill="url(#grad2)" rx="1"/>
    <rect x="12" y="0" width="4" height="20" fill="url(#grad2)" rx="1"/>
    <rect x="18" y="6" width="4" height="14" fill="url(#grad2)" rx="1"/>
  </g>
</svg> 